#tb 0: 1/25
0,          0,          0,        1,   299520, 0xcca98f97
0,          1,          1,        1,   299520, 0xeacb1bc0
0,          2,          2,        1,   299520, 0x6e981dcb
0,          3,          3,        1,   299520, 0x575db954
0,          4,          4,        1,   299520, 0x1ad13375
0,          5,          5,        1,   299520, 0x179f7b9b
0,          6,          6,        1,   299520, 0x64e138ac
0,          7,          7,        1,   299520, 0x45631f37
0,          8,          8,        1,   299520, 0x1a32aae1
0,          9,          9,        1,   299520, 0xda7f9d4e
0,         10,         10,        1,   299520, 0xb61a748e
0,         11,         11,        1,   299520, 0x01293ec5
0,         12,         12,        1,   299520, 0x7c7180da
0,         13,         13,        1,   299520, 0x71737550
0,         14,         14,        1,   299520, 0xae41b035
0,         15,         15,        1,   299520, 0xb5b8572e
0,         16,         16,        1,   299520, 0x5a2c324d
0,         17,         17,        1,   299520, 0xd51d76e2
0,         18,         18,        1,   299520, 0x116a9449
0,         19,         19,        1,   299520, 0xb9993405
0,         20,         20,        1,   299520, 0x295ed0a1
0,         21,         21,        1,   299520, 0x839fce47
0,         22,         22,        1,   299520, 0xb1b72387
0,         23,         23,        1,   299520, 0x2878f200
0,         24,         24,        1,   299520, 0xd6d8b260
0,         25,         25,        1,   299520, 0xb8e7c705
0,         26,         26,        1,   299520, 0x484ecb79
0,         27,         27,        1,   299520, 0x3aa111b3
0,         28,         28,        1,   299520, 0xa9111d3c
0,         29,         29,        1,   299520, 0xcf369a99
0,         30,         30,        1,   299520, 0x55e21814
0,         31,         31,        1,   299520, 0x28369654
0,         32,         32,        1,   299520, 0x602d0aad
0,         33,         33,        1,   299520, 0x226e61ed
0,         34,         34,        1,   299520, 0x703472ba
0,         35,         35,        1,   299520, 0x56ac5bed
0,         36,         36,        1,   299520, 0xcd084e19
0,         37,         37,        1,   299520, 0x431d09f6
0,         38,         38,        1,   299520, 0xe66c2b41
0,         39,         39,        1,   299520, 0xe1b6791f
0,         40,         40,        1,   299520, 0x389bba67
0,         41,         41,        1,   299520, 0x37251429
0,         42,         42,        1,   299520, 0xe6a895e7
0,         43,         43,        1,   299520, 0xf5ac5207
0,         44,         44,        1,   299520, 0x69d61152
0,         45,         45,        1,   299520, 0x832b1271
0,         46,         46,        1,   299520, 0xf9e7eb31
0,         47,         47,        1,   299520, 0x4828b1d3
0,         48,         48,        1,   299520, 0xa0a6843e
0,         49,         49,        1,   299520, 0x5a950a81
0,         50,         50,        1,   299520, 0x9bb6dd9b
0,         51,         51,        1,   299520, 0xd54a7c88
0,         52,         52,        1,   299520, 0x5a06984f
0,         53,         53,        1,   299520, 0x0a973d84
0,         54,         54,        1,   299520, 0xc56986a1
0,         55,         55,        1,   299520, 0xcc25b4e1
0,         56,         56,        1,   299520, 0xc1aca7f1
0,         57,         57,        1,   299520, 0xcc48acd5
0,         58,         58,        1,   299520, 0xbed704ac
0,         59,         59,        1,   299520, 0x011a6bd1
0,         60,         60,        1,   299520, 0x1cfb319f
0,         61,         61,        1,   299520, 0x54831986
0,         62,         62,        1,   299520, 0xf5f308a3
0,         63,         63,        1,   299520, 0xaa04dc81
0,         64,         64,        1,   299520, 0x76a65432
0,         65,         65,        1,   299520, 0x76a65432
0,         66,         66,        1,   299520, 0x4fda7ded
0,         67,         67,        1,   299520, 0x4fda7ded
0,         68,         68,        1,   299520, 0x9f166826
0,         69,         69,        1,   299520, 0xbc097bb8
0,         70,         70,        1,   299520, 0x1e67e1e4
0,         71,         71,        1,   299520, 0xc7e362b8
0,         72,         72,        1,   299520, 0x40d946eb
0,         73,         73,        1,   299520, 0xcd265b49
0,         74,         74,        1,   299520, 0x256f9794
0,         75,         75,        1,   299520, 0x5c1b0d8b
0,         76,         76,        1,   299520, 0xc950fecb
0,         77,         77,        1,   299520, 0xc950fecb
0,         78,         78,        1,   299520, 0x05dfed6e
0,         79,         79,        1,   299520, 0x37ab3d56
0,         80,         80,        1,   299520, 0xe92037d9
0,         81,         81,        1,   299520, 0x4099ef6b
0,         82,         82,        1,   299520, 0xc54fdeee
0,         83,         83,        1,   299520, 0x6142fd24
0,         84,         84,        1,   299520, 0xb50a1c89
0,         85,         85,        1,   299520, 0xf15a2e7f
0,         86,         86,        1,   299520, 0x15b75701
0,         87,         87,        1,   299520, 0x1f229f25
0,         88,         88,        1,   299520, 0xc1d7e804
0,         89,         89,        1,   299520, 0xce841a33
0,         90,         90,        1,   299520, 0x6930969a
0,         91,         91,        1,   299520, 0x67d1ccae
0,         92,         92,        1,   299520, 0x64250935
0,         93,         93,        1,   299520, 0x64250935
0,         94,         94,        1,   299520, 0x670627d3
0,         95,         95,        1,   299520, 0xb8ad2a0e
0,         96,         96,        1,   299520, 0xd63ebf96
0,         97,         97,        1,   299520, 0x3b93b0a6
0,         98,         98,        1,   299520, 0x17bfa866
0,         99,         99,        1,   299520, 0x7e9dbc00
0,        100,        100,        1,   299520, 0x96c3dc1a
0,        101,        101,        1,   299520, 0x0f553712
0,        102,        102,        1,   299520, 0x13258ad2
0,        103,        103,        1,   299520, 0x5512caf7
0,        104,        104,        1,   299520, 0xa54b8f90
0,        105,        105,        1,   299520, 0x615c0096
0,        106,        106,        1,   299520, 0x1fca1b1e
0,        107,        107,        1,   299520, 0x4ec9d16b
0,        108,        108,        1,   299520, 0x2137ff7a
0,        109,        109,        1,   299520, 0x657edb13
0,        110,        110,        1,   299520, 0x19e6199e
0,        111,        111,        1,   299520, 0xd34b2532
0,        112,        112,        1,   299520, 0xef4d0466
0,        113,        113,        1,   299520, 0x81de29e0
0,        114,        114,        1,   299520, 0xf9796c78
0,        115,        115,        1,   299520, 0x8cb5a88b
0,        116,        116,        1,   299520, 0xb6a00104
0,        117,        117,        1,   299520, 0x5d50bccd
0,        118,        118,        1,   299520, 0xfb54f295
0,        119,        119,        1,   299520, 0xcc4e7a73
0,        120,        120,        1,   299520, 0x94e272c2
0,        121,        121,        1,   299520, 0x3f7fb7a0
0,        122,        122,        1,   299520, 0x83d4daf3
0,        123,        123,        1,   299520, 0x504e6e89
0,        124,        124,        1,   299520, 0x42a8785a
0,        125,        125,        1,   299520, 0x98a3977f
0,        126,        126,        1,   299520, 0x26317fbe
0,        127,        127,        1,   299520, 0xa7900dae
0,        128,        128,        1,   299520, 0x7dfbd00e
0,        129,        129,        1,   299520, 0x7dfbd00e
0,        130,        130,        1,   299520, 0x6ad7e283
0,        131,        131,        1,   299520, 0xf2e9bd08
0,        132,        132,        1,   299520, 0x2f4cce56
0,        133,        133,        1,   299520, 0xa0111647
0,        134,        134,        1,   299520, 0xf6172673
0,        135,        135,        1,   299520, 0x7d2f5425
0,        136,        136,        1,   299520, 0x9bdb3ece
0,        137,        137,        1,   299520, 0x73df61a4
0,        138,        138,        1,   299520, 0x60d497b1
0,        139,        139,        1,   299520, 0xd0c55b4a
0,        140,        140,        1,   299520, 0xdc61bc47
0,        141,        141,        1,   299520, 0xcb4e3e52
0,        142,        142,        1,   299520, 0x67a1c69e
0,        143,        143,        1,   299520, 0x63085f52
0,        144,        144,        1,   299520, 0x84c11e17
0,        145,        145,        1,   299520, 0x4db77190
0,        146,        146,        1,   299520, 0xe5cc1310
0,        147,        147,        1,   299520, 0x4b455fd4
0,        148,        148,        1,   299520, 0xb97497e2
0,        149,        149,        1,   299520, 0x6d6a2e79
0,        150,        150,        1,   299520, 0xdf7376a9
0,        151,        151,        1,   299520, 0x713a9043
0,        152,        152,        1,   299520, 0x942ef188
0,        153,        153,        1,   299520, 0x7a99288c
0,        154,        154,        1,   299520, 0x2eac2418
0,        155,        155,        1,   299520, 0x3b55c593
0,        156,        156,        1,   299520, 0xed201fd7
0,        157,        157,        1,   299520, 0xe1343a80
0,        158,        158,        1,   299520, 0xbcd480f6
0,        159,        159,        1,   299520, 0x518a1433
0,        160,        160,        1,   299520, 0xbb1eb25a
0,        161,        161,        1,   299520, 0x179e1d8d
0,        162,        162,        1,   299520, 0x8b90f42c
0,        163,        163,        1,   299520, 0xcb0de7f7
0,        164,        164,        1,   299520, 0x23085cdc
0,        165,        165,        1,   299520, 0x9a2fff26
0,        166,        166,        1,   299520, 0xd7ca8697
0,        167,        167,        1,   299520, 0xd587708f
0,        168,        168,        1,   299520, 0x3dd5b9cf
0,        169,        169,        1,   299520, 0x9ecedd03
0,        170,        170,        1,   299520, 0xeed9293f
0,        171,        171,        1,   299520, 0xf7d92fec
0,        172,        172,        1,   299520, 0x924e45ba
0,        173,        173,        1,   299520, 0xad3acc7e
0,        174,        174,        1,   299520, 0x9ff37752
0,        175,        175,        1,   299520, 0xab630aaa
0,        176,        176,        1,   299520, 0xfbb816f3
0,        177,        177,        1,   299520, 0x360f739b
0,        178,        178,        1,   299520, 0x9067f975
0,        179,        179,        1,   299520, 0x37e2adcf
0,        180,        180,        1,   299520, 0x6da0cbcd
0,        181,        181,        1,   299520, 0x3d364eb0
0,        182,        182,        1,   299520, 0x27c999e3
0,        183,        183,        1,   299520, 0x27c999e3
0,        184,        184,        1,   299520, 0x1667c923
0,        185,        185,        1,   299520, 0x1667c923
0,        186,        186,        1,   299520, 0xb421d788
0,        187,        187,        1,   299520, 0x7e973858
0,        188,        188,        1,   299520, 0x78604c40
0,        189,        189,        1,   299520, 0x2ab9ddeb
0,        190,        190,        1,   299520, 0xce8f6786
0,        191,        191,        1,   299520, 0x2fcdc556
0,        192,        192,        1,   299520, 0x244ff822
0,        193,        193,        1,   299520, 0x395057d3
0,        194,        194,        1,   299520, 0x244ff822
0,        195,        195,        1,   299520, 0x9fbc6b7a
0,        196,        196,        1,   299520, 0x5f90d2f7
0,        197,        197,        1,   299520, 0x53d76b89
0,        198,        198,        1,   299520, 0x3e1a4589
0,        199,        199,        1,   299520, 0x687f51ab
0,        200,        200,        1,   299520, 0x3c5b00b4
0,        201,        201,        1,   299520, 0x2ceb6d32
0,        202,        202,        1,   299520, 0x066d37d7
0,        203,        203,        1,   299520, 0x5117d5f7
0,        204,        204,        1,   299520, 0x6f32278f
0,        205,        205,        1,   299520, 0xe047a841
0,        206,        206,        1,   299520, 0x78e927aa
0,        207,        207,        1,   299520, 0xb110ca42
0,        208,        208,        1,   299520, 0x7b67b7e1
0,        209,        209,        1,   299520, 0xa41deb33
0,        210,        210,        1,   299520, 0x11346c76
0,        211,        211,        1,   299520, 0xf007e421
0,        212,        212,        1,   299520, 0x8b650602
0,        213,        213,        1,   299520, 0x7b3efc19
0,        214,        214,        1,   299520, 0x5de31471
0,        215,        215,        1,   299520, 0x7eb7499c
0,        216,        216,        1,   299520, 0x2d9ee074
0,        217,        217,        1,   299520, 0x01a749a6
0,        218,        218,        1,   299520, 0xc8658472
0,        219,        219,        1,   299520, 0x51d9148a
0,        220,        220,        1,   299520, 0xb1e61e03
0,        221,        221,        1,   299520, 0x815df19c
0,        222,        222,        1,   299520, 0x8384fae5
0,        223,        223,        1,   299520, 0x10db8daa
0,        224,        224,        1,   299520, 0x8ae8fc62
0,        225,        225,        1,   299520, 0xdfa951f8
0,        226,        226,        1,   299520, 0x3d5cef44
0,        227,        227,        1,   299520, 0xbbb3e000
0,        228,        228,        1,   299520, 0xcc69423c
0,        229,        229,        1,   299520, 0x24dd28c9
0,        230,        230,        1,   299520, 0xacc44f56
0,        231,        231,        1,   299520, 0xf24c2c75
0,        232,        232,        1,   299520, 0xb36577d3
0,        233,        233,        1,   299520, 0x6790760d
0,        234,        234,        1,   299520, 0x937552ac
0,        235,        235,        1,   299520, 0xe3ca248e
0,        236,        236,        1,   299520, 0xec914a2d
0,        237,        237,        1,   299520, 0xf95b4b8c
0,        238,        238,        1,   299520, 0x624759e6
0,        239,        239,        1,   299520, 0xd4237929
0,        240,        240,        1,   299520, 0x83248576
0,        241,        241,        1,   299520, 0x05358018
0,        242,        242,        1,   299520, 0xd638f31b
0,        243,        243,        1,   299520, 0xc49d49ec
0,        244,        244,        1,   299520, 0xce485505
0,        245,        245,        1,   299520, 0x35edd46d
0,        246,        246,        1,   299520, 0xda860a26
0,        247,        247,        1,   299520, 0x6f120b46
0,        248,        248,        1,   299520, 0xe609fab6
0,        249,        249,        1,   299520, 0x0521bec4
0,        250,        250,        1,   299520, 0xc23ea122
0,        251,        251,        1,   299520, 0xb9750144
0,        252,        252,        1,   299520, 0x3bbb6e6b
0,        253,        253,        1,   299520, 0xa8764948
0,        254,        254,        1,   299520, 0xfe0f7599
0,        255,        255,        1,   299520, 0x2a132799
